# Blender 4.1.1
# www.blender.org
mtllib buzzAlaIzq2.mtl
o buzzlightyLeftWing1_buzzlighty.015
v 0.329239 0.627911 -0.140361
v 0.329273 0.627911 -0.120924
v 0.329241 0.468588 -0.139162
v 0.329271 0.468588 -0.122121
v 0.065897 0.661365 -0.120460
v 0.329273 0.627911 -0.120924
v 0.065863 0.661365 -0.139896
v 0.329239 0.627911 -0.140361
v 0.065865 0.468588 -0.138697
v 0.329241 0.468588 -0.139162
v 0.065895 0.468588 -0.121656
v 0.329271 0.468588 -0.122121
v 0.329241 0.468588 -0.139162
v 0.065865 0.468588 -0.138697
v 0.329239 0.627911 -0.140361
v 0.065863 0.661365 -0.139896
v 0.329271 0.468588 -0.122121
v 0.329273 0.627911 -0.120924
v 0.065895 0.468588 -0.121656
v 0.065897 0.661365 -0.120460
vn 1.0000 -0.0000 -0.0017
vn 1.0000 -0.0000 -0.0018
vn 0.1260 0.9920 -0.0002
vn -0.0000 -1.0000 -0.0000
vn -0.0018 -0.0075 -1.0000
vn -0.0023 -0.0067 -1.0000
vn -0.0021 -0.0070 -1.0000
vn -0.0026 -0.0062 -1.0000
vn 0.0018 -0.0075 1.0000
vn 0.0015 -0.0070 1.0000
vn 0.0012 -0.0067 1.0000
vn 0.0010 -0.0062 1.0000
vt 0.829549 0.781315
vt 0.829549 0.818540
vt 0.890919 0.781315
vt 0.890919 0.818539
vt 0.720528 0.620831
vt 0.768581 0.990761
vt 0.745246 0.628757
vt 0.788277 0.998687
vt 0.899559 0.886667
vt 0.929862 0.886667
vt 0.899559 0.916970
vt 0.929862 0.916970
vt 0.988638 0.990761
vt 0.988638 0.620831
s 1
usemtl Material.030
f 1/1/1 2/2/1 3/3/2
f 3/3/2 2/2/1 4/4/2
f 5/5/3 6/6/3 7/7/3
f 7/7/3 6/6/3 8/8/3
f 9/9/4 10/10/4 11/11/4
f 11/11/4 10/10/4 12/12/4
f 13/13/5 14/14/6 15/6/7
f 15/6/7 14/14/6 16/5/8
f 17/13/9 18/6/10 19/14/11
f 19/14/11 18/6/10 20/5/12
o buzzlightyLeftWing2_buzzlighty.014
v 0.564341 0.474865 -0.130966
v 0.572968 0.558170 -0.131071
v 0.549435 0.475118 -0.121146
v 0.555658 0.562290 -0.114152
v 0.535713 0.604627 -0.124651
v 0.535759 0.604682 -0.137308
v 0.323015 0.622743 -0.124276
v 0.322992 0.622743 -0.137029
v 0.555589 0.562317 -0.147973
v 0.549400 0.475169 -0.140830
v 0.535537 0.571421 -0.143352
v 0.534670 0.474100 -0.135807
v 0.572968 0.558170 -0.131071
v 0.555589 0.562317 -0.147973
v 0.555658 0.562290 -0.114152
v 0.535537 0.571421 -0.143352
v 0.535580 0.571421 -0.118702
v 0.555589 0.562317 -0.147973
v 0.555658 0.562290 -0.114152
v 0.535537 0.571421 -0.143352
v 0.534670 0.474100 -0.135807
v 0.322994 0.477316 -0.136241
v 0.548755 0.455063 -0.130638
v 0.534885 0.474155 -0.126005
v 0.322994 0.477316 -0.136241
v 0.534670 0.474100 -0.135807
v 0.323013 0.477316 -0.125060
v 0.534885 0.474155 -0.126005
v 0.535713 0.604627 -0.124651
v 0.323015 0.622743 -0.124276
v 0.535580 0.571421 -0.118702
v 0.323013 0.477316 -0.125060
v 0.535537 0.571421 -0.143352
v 0.535759 0.604682 -0.137308
v 0.535580 0.571421 -0.118702
v 0.535713 0.604627 -0.124651
v 0.535580 0.571421 -0.118702
v 0.534885 0.474155 -0.126005
v 0.322992 0.622743 -0.137029
v 0.535759 0.604682 -0.137308
v 0.537597 0.611412 -0.126737
v 0.554459 0.611412 -0.121168
v 0.549818 0.618590 -0.131010
v 0.544694 0.611408 -0.140965
v 0.560928 0.611416 -0.135159
v 0.560928 0.611416 -0.135159
v 0.556844 0.559571 -0.119203
v 0.565017 0.559653 -0.136364
v 0.536311 0.563141 -0.125920
v 0.544795 0.561040 -0.143067
v 0.565017 0.559653 -0.136364
v 0.556205 0.561108 -0.125114
v 0.555812 0.582381 -0.125427
v 0.546958 0.565241 -0.122681
v 0.547062 0.582296 -0.123126
v 0.555792 0.582380 -0.136467
v 0.547034 0.582296 -0.138738
v 0.542477 0.582249 -0.130923
v 0.556184 0.561108 -0.136781
v 0.555792 0.582380 -0.136467
v 0.555812 0.582381 -0.125427
v 0.547062 0.582296 -0.123126
v 0.542477 0.582249 -0.130923
v 0.542114 0.567663 -0.130922
v 0.546929 0.565241 -0.139181
v 0.547034 0.582296 -0.138738
vn 0.2318 0.9728 0.0003
vn 0.9426 -0.3340 -0.0010
vn 0.9886 -0.1503 -0.0019
vn 0.1276 -0.2357 0.9634
vn 0.1247 -0.2473 -0.9609
vn 0.1610 -0.0970 0.9822
vn 0.1569 -0.0986 -0.9827
vn 0.0544 -0.9984 0.0141
vn -0.5582 -0.4062 0.7235
vn -0.5610 -0.4171 -0.7151
vn -0.2509 -0.0707 0.9654
vn -0.2551 -0.0725 -0.9642
vn 0.0849 0.9964 0.0046
vn 0.0849 0.9964 0.0045
vn 0.0846 0.9964 -0.0000
vn 0.0846 0.9964 -0.0002
vn 0.4133 0.9106 -0.0007
vn 0.4137 0.9104 -0.0003
vn 0.4136 0.9105 -0.0004
vn 0.4140 0.9103 -0.0001
vn -0.0002 0.0473 -0.9989
vn 0.0009 -0.0773 -0.9970
vn -0.0223 -0.0251 -0.9994
vn -0.0264 0.0137 -0.9996
vn 0.0139 0.1787 -0.9838
vn -0.0152 -0.9999 -0.0000
vn -0.0149 -0.9999 0.0057
vn -0.0152 -0.9999 0.0002
vn -0.0149 -0.9999 0.0059
vn 0.0167 0.1763 0.9842
vn -0.0230 0.0135 0.9996
vn 0.0026 0.0470 0.9989
vn -0.0191 -0.0244 0.9995
vn 0.0033 -0.0749 0.9972
vn 1.0000 -0.0064 -0.0017
vn 1.0000 -0.0045 0.0015
vn 1.0000 -0.0056 -0.0005
vn 1.0000 -0.0034 0.0036
vn 0.8591 0.0234 0.5113
vn 0.7945 0.0256 0.6067
vn -0.2308 0.0242 0.9727
vn 0.8572 0.0234 -0.5144
vn -0.3787 0.0276 0.9251
vn 0.7923 0.0256 -0.6095
vn -0.9997 0.0226 0.0018
vn -0.2343 0.0242 -0.9719
vn -0.9997 0.0249 0.0018
vn -0.3820 0.0276 -0.9238
vn -0.0098 1.0000 0.0001
vn -0.0097 1.0000 0.0004
vn -0.0098 1.0000 -0.0000
vn -0.0098 1.0000 -0.0001
vn -0.0098 1.0000 -0.0003
vn -0.8328 0.4362 0.3410
vn 0.3547 0.4293 0.8306
vn 0.0205 0.9998 -0.0011
vn -0.3474 0.4261 -0.8353
vn 0.8543 0.3354 0.3970
vn 0.3180 0.2981 -0.9000
vn -0.9132 0.0300 0.4064
vn 0.4501 0.0565 0.8912
vn 0.9010 0.0612 0.4294
vn -0.3274 0.0427 -0.9439
vn 0.3172 0.0471 -0.9472
vt 0.832885 0.766316
vt 0.840053 0.766880
vt 0.840049 0.766876
vt 0.833647 0.754990
vt 0.839813 0.755025
vt 0.839813 0.755032
vt 0.840087 0.752298
vt 0.845820 0.754894
vt 0.845902 0.754886
vt 0.848341 0.768118
vt 0.782897 0.995263
vt 0.794450 0.996825
vt 0.748200 0.623428
vt 0.759175 0.627488
vt 0.829997 0.995263
vt 0.997694 0.995263
vt 0.997694 0.623428
vt 0.748489 0.623428
vt 0.782503 0.995263
vt 0.917392 0.768105
vt 0.917392 0.807223
vt 0.878274 0.768105
vt 0.878274 0.807223
vt 0.834811 0.730326
vt 0.852131 0.730326
vt 0.834811 0.747647
vt 0.852131 0.747647
vt 0.507286 0.381095
vt 0.504458 0.377200
vt 0.496589 0.382962
vt 0.507397 0.364946
vt 0.498425 0.378215
vt 0.504413 0.368973
vt 0.490942 0.372887
vt 0.496959 0.362704
vt 0.495039 0.372819
vt 0.498575 0.367247
vt 1.142278 0.562993
vt 1.145783 0.601909
vt 1.267780 0.558962
vt 1.143899 0.523836
vt 1.150099 0.631531
vt 1.149794 0.484038
vt 1.019223 0.564124
vt 1.019937 0.608458
vt 1.018534 0.642882
vt 1.019893 0.519116
vt 1.020715 0.473635
s 1
usemtl Material.031
f 33/15/13 34/16/13 35/17/13
f 21/18/14 22/15/15 23/19/16
f 30/20/17 22/15/15 21/18/14
f 23/19/16 22/15/15 24/17/18
f 29/16/19 22/15/15 30/20/17
f 43/21/20 30/20/17 21/18/14
f 43/21/20 21/18/14 23/19/16
f 23/19/16 24/17/18 44/22/21
f 43/21/20 23/19/16 44/22/21
f 32/23/22 29/16/19 30/20/17
f 43/21/20 44/22/21 32/23/22
f 30/20/17 43/21/20 32/23/22
f 44/22/21 24/17/18 57/24/23
f 31/24/24 29/16/19 32/23/22
f 25/25/25 26/26/26 27/27/27
f 27/27/27 26/26/26 28/28/28
f 36/24/29 37/24/30 38/16/31
f 38/16/31 37/24/30 39/17/32
f 40/29/33 41/30/34 42/31/35
f 42/31/35 59/32/36 40/29/33
f 40/29/33 59/32/36 60/33/37
f 45/34/38 46/35/39 47/36/40
f 47/36/40 46/35/39 48/37/41
f 49/25/42 50/27/43 51/29/44
f 51/29/44 50/27/43 52/31/45
f 51/29/44 52/31/45 58/30/46
f 53/38/47 54/39/48 55/40/49
f 55/40/49 54/39/48 56/41/50
f 72/42/51 73/43/52 74/44/53
f 72/42/51 79/45/54 73/43/52
f 74/44/53 73/43/52 75/46/55
f 73/43/52 79/45/54 80/47/56
f 75/46/55 84/48/57 74/44/53
f 79/45/54 85/49/58 80/47/56
f 83/50/59 84/48/57 75/46/55
f 80/47/56 85/49/58 86/51/60
f 86/51/60 84/48/57 83/50/59
f 85/49/58 84/48/57 86/51/60
f 76/47/61 77/51/62 78/50/63
f 81/43/64 76/47/61 78/50/63
f 81/43/64 78/50/63 82/46/65
f 61/52/66 62/53/67 63/54/68
f 64/55/69 61/52/66 63/54/68
f 62/53/67 65/56/70 63/54/68
f 66/57/71 64/55/69 63/54/68
f 61/52/66 69/58/72 62/53/67
f 61/52/66 64/55/69 69/58/72
f 62/53/67 67/59/73 65/56/70
f 62/53/67 69/58/72 67/59/73
f 65/56/70 67/59/73 68/60/74
f 64/55/69 66/57/71 70/61/75
f 69/58/72 64/55/69 70/61/75
f 70/61/75 66/57/71 71/62/76
o buzzlightyRightWing1_buzzlighty.008
v -0.328998 0.627911 -0.123928
v -0.328998 0.627911 -0.143365
v -0.328998 0.468588 -0.125127
v -0.328998 0.468588 -0.142168
v -0.065622 0.661365 -0.143364
v -0.328998 0.627911 -0.143365
v -0.065622 0.661365 -0.123928
v -0.328998 0.627911 -0.123928
v -0.065622 0.468588 -0.125127
v -0.328998 0.468588 -0.125127
v -0.065622 0.468588 -0.142168
v -0.328998 0.468588 -0.142168
v -0.328998 0.468588 -0.125127
v -0.065622 0.468588 -0.125127
v -0.328998 0.627911 -0.123928
v -0.065622 0.661365 -0.123928
v -0.328998 0.468588 -0.142168
v -0.328998 0.627911 -0.143365
v -0.065622 0.468588 -0.142168
v -0.065622 0.661365 -0.143364
vn -1.0000 -0.0000 -0.0000
vn -0.1260 0.9920 -0.0000
vn -0.0000 -1.0000 -0.0000
vn -0.0000 -0.0075 1.0000
vn 0.0005 -0.0067 1.0000
vn 0.0003 -0.0070 1.0000
vn 0.0008 -0.0062 1.0000
vn -0.0000 -0.0075 -1.0000
vn 0.0003 -0.0070 -1.0000
vn 0.0005 -0.0067 -1.0000
vn 0.0008 -0.0062 -1.0000
vt 0.829549 0.781315
vt 0.829549 0.818540
vt 0.890919 0.781315
vt 0.890919 0.818539
vt 0.720528 0.620831
vt 0.768581 0.990761
vt 0.745246 0.628757
vt 0.788277 0.998687
vt 0.899559 0.886667
vt 0.929862 0.886667
vt 0.899559 0.916970
vt 0.929862 0.916970
vt 0.988638 0.990761
vt 0.988638 0.620831
s 1
usemtl Material.038
f 87/63/77 88/64/77 89/65/77
f 89/65/77 88/64/77 90/66/77
f 91/67/78 92/68/78 93/69/78
f 93/69/78 92/68/78 94/70/78
f 95/71/79 96/72/79 97/73/79
f 97/73/79 96/72/79 98/74/79
f 99/75/80 100/76/81 101/68/82
f 101/68/82 100/76/81 102/67/83
f 103/75/84 104/68/85 105/76/86
f 105/76/86 104/68/85 106/67/87
o buzzlightyRightWing2_buzzlighty.003
v -0.564084 0.474865 -0.133737
v -0.572711 0.558170 -0.133647
v -0.549160 0.475118 -0.143530
v -0.555371 0.562290 -0.150536
v -0.535444 0.604627 -0.140002
v -0.535513 0.604682 -0.127344
v -0.322746 0.622743 -0.140002
v -0.322746 0.622743 -0.127249
v -0.555362 0.562317 -0.116715
v -0.549160 0.475169 -0.123847
v -0.535301 0.571421 -0.121301
v -0.534421 0.474100 -0.128844
v -0.572711 0.558170 -0.133647
v -0.555362 0.562317 -0.116715
v -0.555371 0.562290 -0.150536
v -0.535301 0.571421 -0.121301
v -0.535301 0.571421 -0.145950
v -0.555362 0.562317 -0.116715
v -0.555371 0.562290 -0.150536
v -0.535301 0.571421 -0.121301
v -0.534421 0.474100 -0.128844
v -0.322746 0.477316 -0.128036
v -0.548497 0.455063 -0.134038
v -0.534619 0.474155 -0.138647
v -0.322746 0.477316 -0.128036
v -0.534421 0.474100 -0.128844
v -0.322746 0.477316 -0.139218
v -0.534619 0.474155 -0.138647
v -0.535444 0.604627 -0.140002
v -0.322746 0.622743 -0.140002
v -0.535301 0.571421 -0.145950
v -0.322746 0.477316 -0.139218
v -0.535301 0.571421 -0.121301
v -0.535513 0.604682 -0.127344
v -0.535301 0.571421 -0.145950
v -0.535444 0.604627 -0.140002
v -0.535301 0.571421 -0.145950
v -0.534619 0.474155 -0.138647
v -0.322746 0.622743 -0.127249
v -0.535513 0.604682 -0.127344
v -0.537332 0.611412 -0.137919
v -0.554184 0.611412 -0.143517
v -0.549561 0.618590 -0.133667
v -0.544454 0.611408 -0.123704
v -0.560678 0.611416 -0.129538
v -0.560678 0.611416 -0.129538
v -0.556566 0.559571 -0.145487
v -0.564769 0.559653 -0.128340
v -0.536044 0.563141 -0.138734
v -0.544559 0.561040 -0.121602
v -0.564769 0.559653 -0.128340
v -0.555937 0.561108 -0.139575
v -0.555545 0.582381 -0.139261
v -0.546686 0.565241 -0.141991
v -0.546790 0.582296 -0.141546
v -0.555545 0.582380 -0.128221
v -0.546790 0.582296 -0.125935
v -0.542220 0.582249 -0.133741
v -0.555937 0.561108 -0.127908
v -0.555545 0.582380 -0.128221
v -0.555545 0.582381 -0.139261
v -0.546790 0.582296 -0.141546
v -0.542220 0.582249 -0.133741
v -0.541856 0.567663 -0.133741
v -0.546686 0.565241 -0.125491
v -0.546790 0.582296 -0.125935
vn -0.2318 0.9728 -0.0007
vn -0.9426 -0.3340 -0.0007
vn -0.9886 -0.1503 0.0002
vn -0.1259 -0.2356 -0.9636
vn -0.1264 -0.2473 0.9607
vn -0.1592 -0.0970 -0.9825
vn -0.1587 -0.0986 0.9824
vn -0.0544 -0.9984 -0.0143
vn 0.5594 -0.4062 -0.7226
vn 0.5597 -0.4171 0.7161
vn 0.2527 -0.0707 -0.9650
vn 0.2534 -0.0725 0.9646
vn -0.0849 0.9964 -0.0048
vn -0.0849 0.9964 -0.0046
vn -0.0846 0.9964 -0.0002
vn -0.0846 0.9964 -0.0000
vn -0.4133 0.9106 -0.0000
vn -0.4137 0.9104 -0.0004
vn -0.4136 0.9105 -0.0003
vn -0.4140 0.9103 -0.0006
vn -0.0015 0.0473 0.9989
vn -0.0026 -0.0773 0.9970
vn 0.0206 -0.0250 0.9995
vn 0.0247 0.0137 0.9996
vn -0.0156 0.1786 0.9838
vn 0.0152 -0.9999 -0.0000
vn 0.0149 -0.9999 -0.0057
vn 0.0152 -0.9999 -0.0002
vn 0.0149 -0.9999 -0.0059
vn -0.0150 0.1762 -0.9842
vn 0.0247 0.0135 -0.9996
vn -0.0009 0.0470 -0.9989
vn 0.0209 -0.0244 -0.9995
vn -0.0016 -0.0749 -0.9972
vn -1.0000 -0.0064 -0.0000
vn -1.0000 -0.0045 -0.0033
vn -1.0000 -0.0056 -0.0013
vn -1.0000 -0.0033 -0.0054
vn -0.8581 0.0234 -0.5129
vn -0.7934 0.0256 -0.6082
vn 0.2326 0.0242 -0.9723
vn -0.8581 0.0234 0.5129
vn 0.3804 0.0277 -0.9244
vn -0.7934 0.0256 0.6081
vn 0.9997 0.0226 -0.0000
vn 0.2325 0.0242 0.9723
vn 0.9997 0.0250 -0.0000
vn 0.3804 0.0276 0.9244
vn 0.0098 1.0000 -0.0001
vn 0.0097 1.0000 -0.0004
vn 0.0098 1.0000 -0.0000
vn 0.0098 1.0000 0.0002
vn 0.0098 1.0000 0.0003
vn 0.8333 0.4362 -0.3395
vn -0.3532 0.4293 -0.8312
vn -0.0205 0.9998 0.0011
vn 0.3459 0.4261 0.8359
vn -0.8536 0.3354 -0.3986
vn -0.3195 0.2981 0.8995
vn 0.9139 0.0300 -0.4048
vn -0.4485 0.0565 -0.8920
vn -0.9003 0.0612 -0.4310
vn 0.3257 0.0427 0.9445
vn -0.3188 0.0471 0.9466
vt 0.832885 0.766316
vt 0.840053 0.766880
vt 0.840049 0.766876
vt 0.833647 0.754990
vt 0.839813 0.755025
vt 0.839813 0.755032
vt 0.840087 0.752298
vt 0.845820 0.754894
vt 0.845902 0.754886
vt 0.848341 0.768118
vt 0.782897 0.995263
vt 0.794450 0.996825
vt 0.748200 0.623428
vt 0.759175 0.627488
vt 0.829997 0.995263
vt 0.997694 0.995263
vt 0.997694 0.623428
vt 0.748489 0.623428
vt 0.782503 0.995263
vt 0.917392 0.768105
vt 0.917392 0.807223
vt 0.878274 0.768105
vt 0.878274 0.807223
vt 0.834811 0.730326
vt 0.852131 0.730326
vt 0.834811 0.747647
vt 0.852131 0.747647
vt 0.507286 0.381095
vt 0.504458 0.377200
vt 0.496589 0.382962
vt 0.507397 0.364946
vt 0.498425 0.378215
vt 0.504413 0.368973
vt 0.490942 0.372887
vt 0.496959 0.362704
vt 0.495039 0.372819
vt 0.498575 0.367247
vt 1.142278 0.562993
vt 1.145783 0.601909
vt 1.267780 0.558962
vt 1.143899 0.523836
vt 1.150099 0.631531
vt 1.149794 0.484038
vt 1.019223 0.564124
vt 1.019937 0.608458
vt 1.018534 0.642882
vt 1.019893 0.519116
vt 1.020715 0.473635
s 1
usemtl Material.039
f 119/77/88 120/78/88 121/79/88
f 107/80/89 108/77/90 109/81/91
f 116/82/92 108/77/90 107/80/89
f 109/81/91 108/77/90 110/79/93
f 115/78/94 108/77/90 116/82/92
f 129/83/95 116/82/92 107/80/89
f 129/83/95 107/80/89 109/81/91
f 109/81/91 110/79/93 130/84/96
f 129/83/95 109/81/91 130/84/96
f 118/85/97 115/78/94 116/82/92
f 129/83/95 130/84/96 118/85/97
f 116/82/92 129/83/95 118/85/97
f 130/84/96 110/79/93 143/86/98
f 117/86/99 115/78/94 118/85/97
f 111/87/100 112/88/101 113/89/102
f 113/89/102 112/88/101 114/90/103
f 122/86/104 123/86/105 124/78/106
f 124/78/106 123/86/105 125/79/107
f 126/91/108 127/92/109 128/93/110
f 128/93/110 145/94/111 126/91/108
f 126/91/108 145/94/111 146/95/112
f 131/96/113 132/97/114 133/98/115
f 133/98/115 132/97/114 134/99/116
f 135/87/117 136/89/118 137/91/119
f 137/91/119 136/89/118 138/93/120
f 137/91/119 138/93/120 144/92/121
f 139/100/122 140/101/123 141/102/124
f 141/102/124 140/101/123 142/103/125
f 158/104/126 159/105/127 160/106/128
f 158/104/126 165/107/129 159/105/127
f 160/106/128 159/105/127 161/108/130
f 159/105/127 165/107/129 166/109/131
f 161/108/130 170/110/132 160/106/128
f 165/107/129 171/111/133 166/109/131
f 169/112/134 170/110/132 161/108/130
f 166/109/131 171/111/133 172/113/135
f 172/113/135 170/110/132 169/112/134
f 171/111/133 170/110/132 172/113/135
f 162/109/136 163/113/137 164/112/138
f 167/105/139 162/109/136 164/112/138
f 167/105/139 164/112/138 168/108/140
f 147/114/141 148/115/142 149/116/143
f 150/117/144 147/114/141 149/116/143
f 148/115/142 151/118/145 149/116/143
f 152/119/146 150/117/144 149/116/143
f 147/114/141 155/120/147 148/115/142
f 147/114/141 150/117/144 155/120/147
f 148/115/142 153/121/148 151/118/145
f 148/115/142 155/120/147 153/121/148
f 151/118/145 153/121/148 154/122/149
f 150/117/144 152/119/146 156/123/150
f 155/120/147 150/117/144 156/123/150
f 156/123/150 152/119/146 157/124/151
